<svg width="60" height="60" viewBox="0 0 60 60" fill="none" xmlns="http://www.w3.org/2000/svg">
<path d="M30 35.425C24.675 35.425 20.325 31.1 20.325 25.75C20.325 20.4 24.675 16.1 30 16.1C35.325 16.1 39.675 20.425 39.675 25.775C39.675 31.125 35.325 35.425 30 35.425ZM30 19.85C26.75 19.85 24.075 22.5 24.075 25.775C24.075 29.05 26.725 31.7 30 31.7C33.275 31.7 35.925 29.05 35.925 25.775C35.925 22.5 33.25 19.85 30 19.85Z" fill="#292D32"/>
<path d="M30 56.9C26.3 56.9 22.5749 55.5 19.6749 52.725C12.3 45.625 4.14995 34.3 7.22495 20.825C9.99995 8.6 20.675 3.125 30 3.125C30 3.125 30 3.125 30.025 3.125C39.3499 3.125 50.0249 8.6 52.7999 20.85C55.8499 34.325 47.6999 45.625 40.3249 52.725C37.4249 55.5 33.7 56.9 30 56.9ZM30 6.875C22.725 6.875 13.375 10.75 10.9 21.65C8.19995 33.425 15.6 43.575 22.3 50C26.625 54.175 33.4 54.175 37.725 50C44.3999 43.575 51.7999 33.425 49.1499 21.65C46.6499 10.75 37.275 6.875 30 6.875Z" fill="#292D32"/>
</svg>
