<svg width="60" height="60" viewBox="0 0 60 60" fill="none" xmlns="http://www.w3.org/2000/svg">
<path d="M39.1251 53.525C38.0501 53.525 36.9751 53.3 36.1001 52.875L22.9751 46.3C22.2251 45.925 20.7501 45.95 20.0251 46.375L14.1251 49.75C11.5751 51.2 8.9501 51.4 6.9751 50.225C4.9751 49.075 3.8501 46.725 3.8501 43.775V19.475C3.8501 17.2 5.3501 14.625 7.3251 13.5L18.1501 7.30002C19.9751 6.25002 22.7501 6.17502 24.6251 7.12502L37.7501 13.7C38.5001 14.075 39.9501 14.025 40.7001 13.625L46.5751 10.275C49.1251 8.82502 51.7501 8.62502 53.7251 9.80002C55.7251 10.95 56.8501 13.3 56.8501 16.25V40.575C56.8501 42.85 55.3501 45.425 53.3751 46.55L42.5501 52.75C41.6001 53.25 40.3501 53.525 39.1251 53.525ZM21.6001 42.3C22.6751 42.3 23.7501 42.525 24.6251 42.95L37.7501 49.525C38.5001 49.9 39.9501 49.85 40.7001 49.45L51.5251 43.25C52.3251 42.8 53.1001 41.45 53.1001 40.55V16.225C53.1001 14.65 52.6501 13.475 51.8251 13.025C51.0251 12.575 49.7751 12.75 48.4251 13.525L42.5501 16.875C40.7251 17.925 37.9501 18 36.0751 17.05L22.9501 10.475C22.2001 10.1 20.7501 10.15 20.0001 10.55L9.1751 16.75C8.3751 17.2 7.6001 18.55 7.6001 19.475V43.8C7.6001 45.375 8.0501 46.55 8.8501 47C9.6501 47.475 10.9001 47.275 12.2751 46.5L18.1501 43.15C19.1251 42.575 20.3751 42.3 21.6001 42.3Z" fill="#292D32"/>
<path d="M21.3999 44.375C20.3749 44.375 19.5249 43.525 19.5249 42.5V10C19.5249 8.975 20.3749 8.125 21.3999 8.125C22.4249 8.125 23.2749 8.975 23.2749 10V42.5C23.2749 43.525 22.4249 44.375 21.3999 44.375Z" fill="#292D32"/>
<path d="M39.325 51.875C38.3 51.875 37.45 51.025 37.45 50V16.55C37.45 15.525 38.3 14.675 39.325 14.675C40.35 14.675 41.2 15.525 41.2 16.55V50C41.2 51.025 40.35 51.875 39.325 51.875Z" fill="#292D32"/>
</svg>
