<svg width="60" height="60" viewBox="0 0 60 60" fill="none" xmlns="http://www.w3.org/2000/svg">
<path d="M22.8989 29.05C22.8239 29.05 22.7739 29.05 22.6989 29.05C22.5739 29.025 22.3989 29.025 22.2489 29.05C14.9989 28.825 9.52393 23.125 9.52393 16.1C9.52393 8.95 15.3489 3.125 22.4989 3.125C29.6489 3.125 35.4739 8.95 35.4739 16.1C35.4489 23.125 29.9489 28.825 22.9739 29.05C22.9489 29.05 22.9239 29.05 22.8989 29.05ZM22.4989 6.875C17.4239 6.875 13.2739 11.025 13.2739 16.1C13.2739 21.1 17.1739 25.125 22.1489 25.3C22.2989 25.275 22.6239 25.275 22.9489 25.3C27.8489 25.075 31.6989 21.05 31.7239 16.1C31.7239 11.025 27.5739 6.875 22.4989 6.875Z" fill="#292D32"/>
<path d="M41.3489 29.375C41.2739 29.375 41.1989 29.375 41.1239 29.35C40.0989 29.45 39.0489 28.725 38.9489 27.7C38.8489 26.675 39.4739 25.75 40.4989 25.625C40.7989 25.6 41.1239 25.6 41.3989 25.6C45.0489 25.4 47.8989 22.4 47.8989 18.725C47.8989 14.925 44.8239 11.85 41.0239 11.85C39.9989 11.875 39.1489 11.025 39.1489 10C39.1489 8.975 39.9989 8.125 41.0239 8.125C46.8739 8.125 51.6489 12.9 51.6489 18.75C51.6489 24.5 47.1489 29.15 41.4239 29.375C41.3989 29.375 41.3739 29.375 41.3489 29.375Z" fill="#292D32"/>
<path d="M22.924 56.375C18.024 56.375 13.099 55.125 9.37402 52.625C5.89902 50.325 3.99902 47.175 3.99902 43.75C3.99902 40.325 5.89902 37.15 9.37402 34.825C16.874 29.85 29.024 29.85 36.474 34.825C39.924 37.125 41.849 40.275 41.849 43.7C41.849 47.125 39.949 50.3 36.474 52.625C32.724 55.125 27.824 56.375 22.924 56.375ZM11.449 37.975C9.04902 39.575 7.74902 41.625 7.74902 43.775C7.74902 45.9 9.07402 47.95 11.449 49.525C17.674 53.7 28.174 53.7 34.399 49.525C36.799 47.925 38.099 45.875 38.099 43.725C38.099 41.6 36.774 39.55 34.399 37.975C28.174 33.825 17.674 33.825 11.449 37.975Z" fill="#292D32"/>
<path d="M45.8489 51.875C44.9739 51.875 44.1989 51.275 44.0239 50.375C43.8239 49.35 44.4739 48.375 45.4739 48.15C47.0489 47.825 48.4989 47.2 49.6239 46.325C51.0489 45.25 51.8239 43.9 51.8239 42.475C51.8239 41.05 51.0489 39.7 49.6489 38.65C48.5489 37.8 47.1739 37.2 45.5489 36.825C44.5489 36.6 43.8989 35.6 44.1239 34.575C44.3489 33.575 45.3489 32.925 46.3739 33.15C48.5239 33.625 50.3989 34.475 51.9239 35.65C54.2489 37.4 55.5739 39.875 55.5739 42.475C55.5739 45.075 54.2239 47.55 51.8989 49.325C50.3489 50.525 48.3989 51.4 46.2489 51.825C46.0989 51.875 45.9739 51.875 45.8489 51.875Z" fill="#292D32"/>
</svg>
